<svg width="532" height="273" viewBox="0 0 532 273" fill="none" xmlns="http://www.w3.org/2000/svg">
<rect x="214.846" y="18.188" width="102.308" height="113.675" rx="18.188" fill="white"/>
<rect x="214.846" y="18.188" width="102.308" height="113.675" rx="18.188" fill="url(#paint0_linear_2041_719)"/>
<path fill-rule="evenodd" clip-rule="evenodd" d="M272.456 56.4292C271.377 56.4292 270.345 56.2205 269.397 55.8403C266.089 55.4388 262.722 55.9016 259.631 57.1968C256.042 58.7005 252.993 61.2556 250.884 64.5259C248.775 67.7962 247.706 71.6283 247.818 75.5179C247.929 79.4075 249.215 83.1722 251.508 86.3166C253.8 89.4609 256.991 91.8375 260.66 93.1335C264.329 94.4295 268.304 94.5842 272.063 93.5772C275.821 92.5702 279.187 90.4488 281.717 87.492C282.538 86.5323 283.258 85.4991 283.871 84.4089H273.843C269.832 84.4089 266.58 81.157 266.58 77.1456C266.58 73.1341 269.832 69.8822 273.843 69.8822H296.101C300.112 69.8822 303.364 73.1341 303.364 77.1456C303.364 77.7223 303.297 78.2834 303.17 78.8214L303.188 78.8234C302.409 86.1166 299.44 93.003 294.672 98.5762C289.904 104.149 283.56 108.148 276.475 110.046C269.39 111.945 261.897 111.653 254.981 109.21C248.065 106.767 242.051 102.287 237.73 96.3605C233.409 90.4336 230.984 83.3373 230.775 76.0057C230.565 68.674 232.58 61.4506 236.555 55.2863C240.529 49.122 246.277 44.3057 253.042 41.4712C259.475 38.7759 266.541 37.9929 273.395 39.2037C277.599 39.6829 280.868 43.3443 280.868 47.7899C280.868 52.5612 277.102 56.4292 272.456 56.4292Z" fill="white"/>
<path d="M140.592 183.577C139.555 181.667 138.054 180.221 136.09 179.239C134.18 178.203 131.916 177.684 129.297 177.684C124.768 177.684 121.14 179.185 118.411 182.186C115.683 185.132 114.319 189.088 114.319 194.053C114.319 199.346 115.738 203.493 118.575 206.494C121.467 209.441 125.423 210.914 130.443 210.914C133.88 210.914 136.772 210.041 139.118 208.295C141.519 206.549 143.265 204.039 144.357 200.765H126.596V190.452H157.043V203.466C156.006 206.958 154.233 210.204 151.723 213.205C149.267 216.206 146.13 218.635 142.31 220.49C138.491 222.345 134.18 223.273 129.379 223.273C123.704 223.273 118.63 222.045 114.155 219.589C109.736 217.079 106.271 213.615 103.761 209.195C101.306 204.775 100.078 199.728 100.078 194.053C100.078 188.379 101.306 183.332 103.761 178.912C106.271 174.438 109.736 170.973 114.155 168.517C118.575 166.007 123.622 164.753 129.297 164.753C136.172 164.753 141.956 166.417 146.648 169.745C151.395 173.074 154.533 177.684 156.061 183.577H140.592ZM178.791 184.805C180.428 182.295 182.474 180.331 184.929 178.912C187.385 177.439 190.113 176.702 193.114 176.702V191.516H189.267C185.775 191.516 183.156 192.28 181.41 193.808C179.664 195.281 178.791 197.9 178.791 201.665V222.863H164.795V177.193H178.791V184.805Z" fill="#333333"/>
<path d="M204.23 182.997H244.115" stroke="#4BF1B7" stroke-width="9.09402" stroke-linecap="round"/>
<path d="M204.23 201.185C211.426 201.469 220.149 201.185 226.971 201.185" stroke="#30C4D7" stroke-width="9.09402" stroke-linecap="round"/>
<path d="M204.23 219.5H244.465" stroke="#1791F6" stroke-width="9.09402" stroke-linecap="round"/>
<path d="M262.652 182.997H302.537" stroke="#4BF1B7" stroke-width="9.09402" stroke-linecap="round"/>
<path d="M262.652 201.185C269.848 201.469 278.571 201.185 285.393 201.185" stroke="#30C4D7" stroke-width="9.09402" stroke-linecap="round"/>
<path d="M262.652 219.5H302.887" stroke="#1791F6" stroke-width="9.09402" stroke-linecap="round"/>
<path d="M340.332 183.378C345.085 183.378 348.869 184.93 351.682 188.035C354.543 191.09 355.974 195.31 355.974 200.693V224.411H343.606V202.367C343.606 199.651 342.903 197.541 341.496 196.037C340.09 194.534 338.198 193.782 335.822 193.782C333.445 193.782 331.554 194.534 330.147 196.037C328.74 197.541 328.037 199.651 328.037 202.367V224.411H315.597V183.815H328.037V189.199C329.298 187.404 330.996 185.998 333.13 184.979C335.264 183.912 337.665 183.378 340.332 183.378ZM377.06 170.574V224.411H364.619V170.574H377.06ZM392.332 179.595C390.149 179.595 388.355 178.965 386.948 177.704C385.59 176.394 384.911 174.794 384.911 172.902C384.911 170.962 385.59 169.362 386.948 168.1C388.355 166.791 390.149 166.136 392.332 166.136C394.466 166.136 396.212 166.791 397.57 168.1C398.977 169.362 399.68 170.962 399.68 172.902C399.68 174.794 398.977 176.394 397.57 177.704C396.212 178.965 394.466 179.595 392.332 179.595ZM398.516 183.815V224.411H386.075V183.815H398.516ZM430.157 213.862V224.411H423.828C419.317 224.411 415.801 223.319 413.279 221.137C410.757 218.906 409.496 215.292 409.496 210.297V194.146H404.549V183.815H409.496V173.921H421.936V183.815H430.085V194.146H421.936V210.442C421.936 211.655 422.227 212.528 422.809 213.061C423.391 213.595 424.361 213.862 425.719 213.862H430.157Z" fill="#333333"/>
<defs>
<linearGradient id="paint0_linear_2041_719" x1="214.846" y1="-25.4316" x2="369.173" y2="184.955" gradientUnits="userSpaceOnUse">
<stop stop-color="#4BF1B7"/>
<stop offset="0.515625" stop-color="#30C4D7"/>
<stop offset="1" stop-color="#1791F6"/>
</linearGradient>
</defs>
</svg>
